<?xml version="1.0" encoding="UTF-8" standalone="no"?>
<!-- Created with Inkscape (http://www.inkscape.org/) -->

<svg
   width="14.757077mm"
   height="14.854841mm"
   viewBox="0 0 14.757077 14.854841"
   version="1.1"
   id="svg26"
   xmlns="http://www.w3.org/2000/svg"
   xmlns:svg="http://www.w3.org/2000/svg">
  <defs
     id="defs23" />
  <g
     id="layer1"
     transform="translate(-60.365415,-88.405678)">
    <path
       fill="#3594a6"
       d="m 66.007788,89.809961 a 0.60060416,0.60060416 0 1 0 0,-1.201208 0.60060416,0.60060416 0 0 0 0,1.201208 m -3.149864,2.033058 a 0.79269166,0.79269166 0 0 0 0.778404,-0.806714 0.79254881,0.79254881 0 1 0 -1.584854,0.02778 0.79295624,0.79295624 0 0 0 0.80645,0.778933 m -1.712384,2.793736 a 0.60060429,0.60060429 0 1 0 -7.93e-4,-1.201208 0.60060429,0.60060429 0 0 0 7.93e-4,1.201208 m -0.0011,2.251869 a 0.79254881,0.79254881 0 1 0 0.02778,1.584854 0.79269166,0.79269166 0 0 0 -0.02778,-1.584854 m 1.738577,3.156217 a 0.60073645,0.60073645 0 1 0 0,1.20147 0.60073645,0.60073645 0 0 0 0,-1.20147 m 3.163623,1.62983 a 0.79295624,0.79295624 0 1 0 0.02778,1.58565 0.79295624,0.79295624 0 0 0 -0.02805,-1.58565 m 3.437202,0.17119 a 0.60060416,0.60060416 0 1 0 0,1.20068 0.60060416,0.60060416 0 0 0 0,-1.20068 m 3.144573,-2.027506 a 0.79322082,0.79322082 0 1 0 0.02752,1.585916 0.79269166,0.79269166 0 0 0 0.778404,-0.80698 0.79242707,0.79242707 0 0 0 -0.805921,-0.778936 m 1.713971,-2.783681 a 0.6007365,0.6007365 0 1 0 0,1.201473 0.6007365,0.6007365 0 0 0 0,-1.201473 m 0.0013,-2.262982 a 0.79254651,0.79254651 0 1 0 -0.02752,-1.584854 0.79254651,0.79254651 0 1 0 0.02752,1.584854 m -1.737254,-3.156479 a 0.60086874,0.60086874 0 0 0 0,-1.201208 0.60060416,0.60060416 0 1 0 0,1.201208 m -3.160713,-1.623748 a 0.79242707,0.79242707 0 0 0 0.778669,-0.80645 0.79295624,0.79295624 0 1 0 -0.778669,0.80645 m 0.04022,1.108869 a 0.99562707,0.99562707 0 1 0 1.99099,0 0.99562707,0.99562707 0 0 0 -1.99099,0 m -1.7399,0.118269 a 0.796396,0.796396 0 0 0 0,-1.592792 0.796396,0.796396 0 0 0 0,1.592792 m -2.668323,0.865981 a 0.99562707,0.99562707 0 1 0 0,-1.990989 0.99562707,0.99562707 0 0 0 0,1.990989 m -2.77495,0.988483 a 0.796396,0.796396 0 1 0 1.592792,0 0.796396,0.796396 0 0 0 -1.592792,0 m 0.02619,1.76583 a 0.99562707,0.99562707 0 1 0 0,1.990989 0.99562707,0.99562707 0 0 0 0,-1.991254 m 0.779727,2.83845 a 0.79692499,0.79692499 0 0 0 -0.79666,0.796396 0.79666041,0.79666041 0 0 0 1.592791,0 0.79639582,0.79639582 0 0 0 -0.796396,-0.796396 m 2.958571,2.778129 a 0.99523023,0.99523023 0 1 0 -1.99046,-5.3e-4 0.99523023,0.99523023 0 0 0 1.99046,5.3e-4 m 1.671638,-0.0265 a 0.79639582,0.79639582 0 1 0 0,1.59226 0.79639582,0.79639582 0 0 0 0,-1.59226 m 2.742671,-0.968907 a 0.99509854,0.99509854 0 1 0 -5.3e-4,1.990197 0.99509854,0.99509854 0 0 0 5.3e-4,-1.990197 m 1.972204,-0.180975 a 0.79666041,0.79666041 0 0 0 0.796925,-0.796395 0.79666041,0.79666041 0 0 0 -1.593057,0 0.79613124,0.79613124 0 0 0 0.796396,0.796395 m -0.310091,-3.45387 a 0.99562711,0.99562711 0 1 0 1.991254,-5.3e-4 0.99562711,0.99562711 0 0 0 -1.991254,5.3e-4 m 0.309827,-1.9558 a 0.79666054,0.79666054 0 1 0 5.29e-4,-1.593321 0.79666054,0.79666054 0 0 0 -5.29e-4,1.593321"
       id="path2"
       style="stroke-width:0.264583" />
  </g>
</svg>
