<?xml version="1.0" encoding="UTF-8" standalone="no"?>
<svg
   xmlns:dc="http://purl.org/dc/elements/1.1/"
   xmlns:cc="http://creativecommons.org/ns#"
   xmlns:rdf="http://www.w3.org/1999/02/22-rdf-syntax-ns#"
   xmlns:svg="http://www.w3.org/2000/svg"
   xmlns="http://www.w3.org/2000/svg"
   xmlns:sodipodi="http://sodipodi.sourceforge.net/DTD/sodipodi-0.dtd"
   xmlns:inkscape="http://www.inkscape.org/namespaces/inkscape"
   width="349.10931"
   height="56.144291"
   viewBox="10.927 62.517 349.1093 56.144289"
   version="1.1"
   id="svg84"
   sodipodi:docname="logo_escholarship_dspace.svg"
   inkscape:version="1.0.2 (e86c8708, 2021-01-15)">
  <metadata
     id="metadata90">
    <rdf:RDF>
      <cc:Work
         rdf:about="">
        <dc:format>image/svg+xml</dc:format>
        <dc:type
           rdf:resource="http://purl.org/dc/dcmitype/StillImage" />
        <dc:title />
      </cc:Work>
    </rdf:RDF>
  </metadata>
  <defs
     id="defs88">
    <clipPath
       clipPathUnits="userSpaceOnUse"
       id="clipPath37">
      <rect
         style="fill:#ffffff;stroke:#000000;stroke-width:0.802457;stroke-dasharray:0, 8.82704"
         id="rect39"
         width="33.43367"
         height="55.323788"
         x="226.82048"
         y="-23.529381" />
    </clipPath>
  </defs>
  <sodipodi:namedview
     pagecolor="#ffffff"
     bordercolor="#666666"
     borderopacity="1"
     objecttolerance="10"
     gridtolerance="10"
     guidetolerance="10"
     inkscape:pageopacity="0"
     inkscape:pageshadow="2"
     inkscape:window-width="1920"
     inkscape:window-height="1035"
     id="namedview86"
     showgrid="false"
     showguides="true"
     inkscape:guide-bbox="true"
     inkscape:zoom="7.716769"
     inkscape:cx="191.54043"
     inkscape:cy="10.914802"
     inkscape:window-x="0"
     inkscape:window-y="23"
     inkscape:window-maximized="1"
     inkscape:current-layer="svg84"
     inkscape:document-rotation="0">
    <sodipodi:guide
       position="240.51516,4.309125"
       orientation="0,-1"
       id="guide168" />
    <sodipodi:guide
       position="13.37795,18.092772"
       orientation="0,-1"
       id="guide177" />
    <sodipodi:guide
       position="49.761758,29.449179"
       orientation="0,-1"
       id="guide179" />
  </sodipodi:namedview>
  <path
     fill="#3594a6"
     d="m 32.253951,67.824521 a 2.27,2.27 0 1 0 0,-4.54 2.27,2.27 0 0 0 0,4.54 m -11.905,7.684 a 2.996,2.996 0 0 0 2.942,-3.049 2.9954601,2.9954601 0 1 0 -5.99,0.105 2.997,2.997 0 0 0 3.048,2.944 m -6.472,10.559 a 2.2700005,2.2700005 0 1 0 -0.003,-4.54 2.2700005,2.2700005 0 0 0 0.003,4.54 m -0.004,8.511 a 2.9954601,2.9954601 0 1 0 0.105,5.989999 2.996,2.996 0 0 0 -0.105,-5.989999 m 6.571,11.928999 a 2.2705,2.2705 0 1 0 0,4.541 2.2705,2.2705 0 0 0 0,-4.541 m 11.957,6.16 a 2.997,2.997 0 1 0 0.105,5.993 2.997,2.997 0 0 0 -0.106,-5.993 m 12.991,0.647 a 2.27,2.27 0 1 0 0,4.538 2.27,2.27 0 0 0 0,-4.538 m 11.885,-7.663 a 2.998,2.998 0 1 0 0.104,5.994 2.996,2.996 0 0 0 2.942,-3.05 2.995,2.995 0 0 0 -3.046,-2.944 m 6.478,-10.520999 a 2.2705,2.2705 0 1 0 0,4.541 2.2705,2.2705 0 0 0 0,-4.541 m 0.005,-8.553 a 2.9954514,2.9954514 0 1 0 -0.104,-5.99 2.9954514,2.9954514 0 1 0 0.104,5.99 m -6.566,-11.93 a 2.271,2.271 0 0 0 0,-4.54 2.27,2.27 0 1 0 0,4.54 m -11.946,-6.137 a 2.995,2.995 0 0 0 2.943,-3.048 2.997,2.997 0 1 0 -2.943,3.048 m 0.152,4.191 a 3.763,3.763 0 1 0 7.525,0 3.763,3.763 0 0 0 -7.525,0 m -6.576,0.447 a 3.01,3.01 0 0 0 0,-6.02 3.01,3.01 0 0 0 0,6.02 m -10.085,3.273 a 3.763,3.763 0 1 0 0,-7.525 3.763,3.763 0 0 0 0,7.525 m -10.488,3.736 a 3.01,3.01 0 1 0 6.02,0 3.01,3.01 0 0 0 -6.02,0 m 0.099,6.674 a 3.763,3.763 0 1 0 0,7.525 3.763,3.763 0 0 0 0,-7.526 m 2.947,10.728 a 3.012,3.012 0 0 0 -3.011,3.009999 3.011,3.011 0 0 0 6.02,0 3.01,3.01 0 0 0 -3.01,-3.009999 m 11.182,10.499999 a 3.7615001,3.7615001 0 1 0 -7.523,-0.002 3.7615001,3.7615001 0 0 0 7.523,0.002 m 6.318,-0.1 a 3.01,3.01 0 1 0 0,6.018 3.01,3.01 0 0 0 0,-6.018 m 10.366,-3.662 a 3.7610001,3.7610001 0 1 0 -0.002,7.522 3.7610001,3.7610001 0 0 0 0.002,-7.522 m 7.454,-0.684 a 3.011,3.011 0 0 0 3.012,-3.01 3.011,3.011 0 0 0 -6.021,0 3.009,3.009 0 0 0 3.01,3.01 m -1.172,-13.053999 a 3.7630001,3.7630001 0 1 0 7.526,-0.002 3.7630001,3.7630001 0 0 0 -7.526,0.002 m 1.171,-7.392 a 3.0110002,3.0110002 0 1 0 0.002,-6.022 3.0110002,3.0110002 0 0 0 -0.002,6.022"
     id="path78" />
  <path
     fill="#4f4c4c"
     d="m 83.855951,79.181521 a 6.97,6.97 0 0 0 -0.248,-1.621 4.113,4.113 0 0 0 -0.662,-1.356 3.117,3.117 0 0 0 -1.174,-0.943 c -0.486,-0.231 -1.07,-0.348 -1.754,-0.348 -1.28,0 -2.271,0.397 -2.977,1.191 -0.706,0.794 -1.17,1.82 -1.389,3.077 z m -8.338,1.92 c 0.022,0.838 0.127,1.637 0.315,2.398 0.187,0.761 0.48,1.434 0.876,2.018 a 4.33,4.33 0 0 0 1.538,1.39 c 0.63,0.341 1.384,0.512 2.266,0.512 0.552,0 1.059,-0.054 1.522,-0.165 0.463,-0.11 0.877,-0.237 1.241,-0.38 0.364,-0.144 0.683,-0.298 0.96,-0.463 0.275,-0.166 0.5,-0.304 0.678,-0.414 l 0.992,1.886 a 16.38,16.38 0 0 1 -0.777,0.479 c -0.32,0.188 -0.706,0.365 -1.158,0.53 -0.453,0.165 -0.97,0.308 -1.555,0.43 a 9.745,9.745 0 0 1 -1.968,0.182 c -1.258,0 -2.355,-0.221 -3.292,-0.662 a 6.686,6.686 0 0 1 -2.35,-1.803 c -0.627,-0.76 -1.096,-1.654 -1.405,-2.68 a 11.33,11.33 0 0 1 -0.463,-3.292 c 0,-1.168 0.177,-2.254 0.529,-3.258 0.353,-1.003 0.844,-1.874 1.472,-2.613 a 6.783,6.783 0 0 1 2.25,-1.737 c 0.871,-0.418 1.836,-0.628 2.894,-0.628 1.06,0 2.002,0.198 2.83,0.596 a 5.307,5.307 0 0 1 2.033,1.687 c 0.53,0.727 0.91,1.599 1.142,2.613 0.232,1.014 0.292,2.139 0.182,3.374 h -10.751 m 27.192999,2.49 a 5.43,5.43 0 0 1 -0.522,2.377 5.654,5.654 0 0 1 -1.456,1.884 c -0.622,0.528 -1.38,0.935 -2.273,1.221 -0.893,0.286 -1.87,0.43 -2.928,0.43 a 9.631,9.631 0 0 1 -2.283,-0.252 10.378,10.378 0 0 1 -1.802,-0.605 8.028,8.028 0 0 1 -1.324,-0.738 6.511,6.511 0 0 1 -0.843,-0.688 l 1.323,-1.853 0.595,0.496 c 0.265,0.222 0.601,0.436 1.01,0.646 0.409,0.21 0.898,0.397 1.472,0.562 0.574,0.165 1.224,0.248 1.951,0.248 0.684,0 1.301,-0.104 1.853,-0.314 a 4.732,4.732 0 0 0 1.422,-0.825 3.5,3.5 0 0 0 0.91,-1.19 c 0.21,-0.45 0.315,-0.919 0.315,-1.403 0,-0.661 -0.144,-1.24 -0.43,-1.735 a 4.808,4.808 0 0 0 -1.142,-1.32 9.83,9.83 0 0 0 -1.621,-1.057 57.846,57.846 0 0 0 -1.869,-0.941 31.875,31.875 0 0 1 -1.92,-1.04 7.843,7.843 0 0 1 -1.636,-1.272 5.821,5.821 0 0 1 -1.142,-1.668 c -0.287,-0.628 -0.43,-1.382 -0.43,-2.263 0,-0.902 0.178,-1.701 0.536,-2.395 a 5.447,5.447 0 0 1 1.44,-1.767 6.235,6.235 0 0 1 2.06,-1.09 8.033,8.033 0 0 1 2.415,-0.363 c 0.815,0 1.544,0.067 2.183,0.202 0.639,0.135 1.197,0.291 1.67,0.47 0.475,0.18 0.872,0.375 1.192,0.588 0.32,0.213 0.568,0.386 0.744,0.52 l -1.257,1.925 c -0.375,-0.309 -0.938,-0.64 -1.687,-0.993 -0.75,-0.352 -1.709,-0.529 -2.878,-0.529 -1.103,0 -2.018,0.303 -2.746,0.909 -0.728,0.606 -1.091,1.414 -1.091,2.428 0,0.55 0.104,1.028 0.312,1.436 0.207,0.407 0.492,0.776 0.854,1.107 0.362,0.33 0.779,0.628 1.25,0.891 0.47,0.265 0.98,0.53 1.528,0.794 0.723,0.352 1.457,0.72 2.202,1.106 a 9.315,9.315 0 0 1 2.005,1.387 6.767,6.767 0 0 1 1.462,1.932 c 0.384,0.749 0.576,1.662 0.576,2.741 m 15.151,4.325 c -0.155,0.132 -0.37,0.287 -0.645,0.463 a 6.95,6.95 0 0 1 -1.042,0.53 7.76,7.76 0 0 1 -1.439,0.429 9.425,9.425 0 0 1 -1.869,0.165 c -1.17,0 -2.206,-0.231 -3.11,-0.695 a 6.842,6.842 0 0 1 -2.266,-1.835 c -0.607,-0.761 -1.065,-1.649 -1.373,-2.663 a 10.723,10.723 0 0 1 -0.463,-3.143 c 0,-1.368 0.198,-2.57 0.596,-3.606 0.396,-1.036 0.926,-1.903 1.587,-2.597 a 6.697,6.697 0 0 1 2.316,-1.588 7.302,7.302 0 0 1 2.812,-0.546 c 1.301,0 2.342,0.188 3.126,0.563 0.783,0.375 1.362,0.716 1.737,1.025 l -1.158,1.82 a 10.226,10.226 0 0 0 -1.488,-0.894 c -0.574,-0.286 -1.323,-0.43 -2.25,-0.43 -0.816,0 -1.522,0.16 -2.118,0.48 -0.594,0.32 -1.08,0.756 -1.455,1.307 -0.375,0.551 -0.656,1.207 -0.843,1.968 a 10.107,10.107 0 0 0 -0.281,2.431 c 0,0.839 0.093,1.638 0.28,2.4 a 6.39,6.39 0 0 0 0.861,2.017 4.259,4.259 0 0 0 1.489,1.39 c 0.606,0.341 1.317,0.512 2.133,0.512 0.507,0 0.97,-0.05 1.39,-0.149 a 6.76,6.76 0 0 0 1.125,-0.363 c 0.33,-0.144 0.611,-0.293 0.843,-0.447 0.232,-0.154 0.402,-0.275 0.513,-0.364 l 0.992,1.82 m 13.463,1.191 v -10.851 c 0,-0.993 -0.204,-1.78 -0.611,-2.365 -0.41,-0.584 -1.142,-0.877 -2.201,-0.877 -0.618,0 -1.185,0.132 -1.702,0.397 -0.52,0.264 -0.983,0.562 -1.389,0.893 -0.41,0.33 -0.74,0.656 -0.993,0.976 -0.255,0.32 -0.425,0.535 -0.514,0.645 v 11.181 h -2.415 v -23.818 h 2.415 v 10.222 c 0.177,-0.22 0.413,-0.485 0.712,-0.794 0.297,-0.309 0.66,-0.6 1.09,-0.877 a 7.243,7.243 0 0 1 1.489,-0.71 5.577,5.577 0 0 1 1.87,-0.299 c 0.838,0 1.549,0.133 2.134,0.397 a 4.046,4.046 0 0 1 1.438,1.059 c 0.377,0.441 0.65,0.965 0.828,1.572 0.175,0.606 0.264,1.251 0.264,1.934 v 11.314 h -2.415 m 18.56,-7.906 c 0,-0.86 -0.106,-1.67 -0.315,-2.431 a 5.937,5.937 0 0 0 -0.96,-2.002 4.732,4.732 0 0 0 -1.571,-1.356 c -0.617,-0.331 -1.346,-0.496 -2.184,-0.496 -0.815,0 -1.52,0.165 -2.117,0.496 -0.596,0.33 -1.074,0.778 -1.438,1.34 -0.364,0.562 -0.634,1.218 -0.812,1.968 -0.176,0.75 -0.265,1.555 -0.265,2.415 0,0.86 0.094,1.67 0.282,2.431 0.188,0.761 0.481,1.429 0.878,2.002 a 4.321,4.321 0 0 0 1.504,1.356 c 0.607,0.331 1.319,0.496 2.134,0.496 0.838,0 1.56,-0.164 2.168,-0.496 a 4.396,4.396 0 0 0 1.504,-1.34 c 0.399,-0.562 0.694,-1.218 0.895,-1.968 0.197,-0.75 0.297,-1.555 0.297,-2.415 z m 2.58,-0.066 c 0,0.926 -0.139,1.886 -0.414,2.878 a 8.152,8.152 0 0 1 -1.307,2.696 c -0.595,0.806 -1.367,1.472 -2.314,2.002 -0.95,0.529 -2.098,0.794 -3.442,0.794 -1.345,0 -2.482,-0.26 -3.407,-0.777 a 6.955,6.955 0 0 1 -2.266,-1.986 8.1,8.1 0 0 1 -1.274,-2.68 10.968,10.968 0 0 1 -0.398,-2.86 c 0,-0.928 0.126,-1.886 0.382,-2.879 a 8.023,8.023 0 0 1 1.24,-2.696 6.99,6.99 0 0 1 2.233,-2.001 c 0.914,-0.53 2.047,-0.794 3.393,-0.794 1.343,0 2.497,0.259 3.455,0.777 0.96,0.518 1.742,1.18 2.35,1.985 a 8.304,8.304 0 0 1 1.34,2.68 c 0.285,0.981 0.429,1.935 0.429,2.861 m 4.102,7.973 h 2.414 v -23.82 h -2.414 z m 15.813,-7.543 h -0.696 c -0.859,0 -1.648,0.061 -2.364,0.182 -0.717,0.121 -1.336,0.326 -1.852,0.612 a 3.35,3.35 0 0 0 -1.226,1.125 c -0.299,0.463 -0.445,1.025 -0.445,1.687 0,0.419 0.077,0.772 0.23,1.058 0.155,0.288 0.348,0.519 0.58,0.695 0.232,0.176 0.485,0.304 0.76,0.38 0.277,0.078 0.536,0.116 0.778,0.116 0.905,0 1.709,-0.209 2.416,-0.628 a 6.186,6.186 0 0 0 1.82,-1.654 v -3.573 z m 0.364,7.543 c -0.044,-0.22 -0.088,-0.535 -0.133,-0.943 a 48.194,48.194 0 0 1 -0.1,-0.977 c -0.528,0.662 -1.206,1.214 -2.033,1.655 -0.827,0.441 -1.738,0.661 -2.73,0.661 -1.323,0 -2.409,-0.385 -3.26,-1.158 -0.847,-0.771 -1.271,-1.807 -1.271,-3.11 0,-1.058 0.258,-1.934 0.777,-2.629 a 5.67,5.67 0 0 1 2.018,-1.671 9.83,9.83 0 0 1 2.744,-0.893 16.927,16.927 0 0 1 2.928,-0.265 h 0.696 v -1.478 c 0,-1.182 -0.254,-2.026 -0.76,-2.529 -0.51,-0.504 -1.312,-0.756 -2.417,-0.756 -0.726,0 -1.422,0.127 -2.083,0.38 -0.66,0.254 -1.346,0.7 -2.052,1.34 l -1.289,-1.687 c 1.565,-1.478 3.428,-2.216 5.591,-2.216 1.74,0 3.081,0.424 4.019,1.273 0.938,0.849 1.406,2.178 1.406,3.987 v 7.41 c 0,0.794 0.033,1.5 0.1,2.117 0.065,0.618 0.154,1.114 0.263,1.489 h -2.414 m 15.051,-13.63 a 3.39,3.39 0 0 0 -0.446,-0.165 c -0.21,-0.066 -0.524,-0.1 -0.943,-0.1 -0.596,0 -1.127,0.144 -1.589,0.43 a 5.29,5.29 0 0 0 -1.19,0.993 c -0.332,0.375 -0.59,0.74 -0.778,1.092 -0.188,0.352 -0.302,0.595 -0.347,0.727 v 10.653 h -2.414 v -15.88 h 2.414 v 2.482 a 8.68,8.68 0 0 1 0.613,-0.893 c 0.252,-0.331 0.557,-0.646 0.907,-0.944 a 4.994,4.994 0 0 1 1.21,-0.743 3.698,3.698 0 0 1 1.504,-0.298 c 0.485,0 0.856,0.044 1.11,0.132 0.252,0.088 0.435,0.154 0.545,0.198 l -0.596,2.316 m 13.035,9.362 c 0,1.456 -0.509,2.602 -1.522,3.44 -1.015,0.839 -2.394,1.258 -4.136,1.258 -1.147,0 -2.146,-0.165 -2.993,-0.496 -0.851,-0.331 -1.528,-0.673 -2.035,-1.026 l 1.06,-1.853 c 0.308,0.221 0.798,0.492 1.47,0.81 0.672,0.32 1.495,0.48 2.465,0.48 0.994,0 1.78,-0.198 2.366,-0.595 0.583,-0.397 0.876,-0.96 0.876,-1.687 0,-0.728 -0.293,-1.295 -0.876,-1.704 -0.585,-0.407 -1.461,-0.865 -2.63,-1.373 a 20.981,20.981 0 0 1 -1.72,-0.827 6.45,6.45 0 0 1 -1.39,-0.992 3.998,3.998 0 0 1 -0.926,-1.307 c -0.222,-0.496 -0.331,-1.086 -0.331,-1.77 0,-1.235 0.441,-2.271 1.322,-3.109 0.883,-0.838 2.117,-1.257 3.706,-1.257 0.663,0 1.25,0.06 1.77,0.181 0.518,0.122 0.977,0.265 1.373,0.43 a 6.136,6.136 0 0 1 1.556,0.91 l -1.192,1.754 c -0.288,-0.22 -0.722,-0.475 -1.306,-0.762 -0.585,-0.286 -1.329,-0.43 -2.235,-0.43 -0.837,0 -1.486,0.194 -1.951,0.58 -0.463,0.385 -0.694,0.92 -0.694,1.604 0,0.75 0.286,1.318 0.86,1.703 0.572,0.387 1.3,0.767 2.184,1.142 0.64,0.265 1.257,0.546 1.851,0.843 0.596,0.298 1.12,0.635 1.572,1.01 0.452,0.374 0.815,0.81 1.092,1.307 0.273,0.496 0.414,1.074 0.414,1.736 m 13.894,4.268 v -10.851 c 0,-0.993 -0.205,-1.78 -0.613,-2.365 -0.408,-0.584 -1.14,-0.877 -2.2,-0.877 -0.617,0 -1.186,0.132 -1.704,0.397 -0.518,0.265 -0.982,0.562 -1.39,0.893 -0.407,0.33 -0.739,0.656 -0.992,0.976 -0.254,0.32 -0.424,0.535 -0.513,0.645 v 11.181 h -2.415 v -23.818 h 2.415 v 10.222 c 0.176,-0.22 0.414,-0.485 0.713,-0.794 a 6.04,6.04 0 0 1 1.091,-0.877 7.1,7.1 0 0 1 1.49,-0.71 5.56,5.56 0 0 1 1.867,-0.299 c 0.837,0 1.55,0.133 2.133,0.397 a 4.044,4.044 0 0 1 1.44,1.059 c 0.374,0.441 0.65,0.965 0.827,1.572 a 6.92,6.92 0 0 1 0.265,1.934 v 11.314 h -2.414 m 7.905,0.001 v -15.88 h 2.45 v 15.88 z m 1.225,-22.43 c 0.505,0 0.931,0.171 1.273,0.513 0.342,0.342 0.512,0.767 0.512,1.274 0,0.507 -0.17,0.932 -0.512,1.273 -0.342,0.343 -0.768,0.513 -1.274,0.513 -0.507,0 -0.931,-0.17 -1.273,-0.513 -0.342,-0.34 -0.513,-0.766 -0.513,-1.273 0,-0.507 0.171,-0.932 0.513,-1.274 0.342,-0.342 0.766,-0.513 1.273,-0.513 m 17.732,14.523 c 0,-0.882 -0.089,-1.703 -0.265,-2.465 -0.176,-0.76 -0.441,-1.416 -0.794,-1.968 a 3.815,3.815 0 0 0 -1.356,-1.29 c -0.553,-0.309 -1.201,-0.463 -1.951,-0.463 a 4.12,4.12 0 0 0 -1.506,0.264 5.975,5.975 0 0 0 -1.207,0.63 5.505,5.505 0 0 0 -0.877,0.727 6.099,6.099 0 0 0 -0.513,0.595 v 8.734 c 0.375,0.33 0.854,0.656 1.438,0.976 0.584,0.32 1.373,0.48 2.368,0.48 0.77,0 1.441,-0.155 2.015,-0.463 a 4.201,4.201 0 0 0 1.456,-1.308 c 0.397,-0.562 0.696,-1.223 0.894,-1.984 a 9.67,9.67 0 0 0 0.298,-2.465 z m 2.58,-0.066 c 0,1.257 -0.17,2.398 -0.514,3.424 -0.34,1.026 -0.826,1.902 -1.455,2.63 a 6.778,6.778 0 0 1 -2.216,1.704 c -0.85,0.407 -1.793,0.612 -2.828,0.612 -1.125,0 -2,-0.166 -2.63,-0.497 -0.628,-0.33 -1.097,-0.628 -1.406,-0.893 v 8.238 h -2.416 v -23.124 h 2.416 v 1.72 c 0.42,-0.507 1.004,-0.987 1.754,-1.44 0.75,-0.451 1.697,-0.677 2.844,-0.677 1.941,0 3.5,0.722 4.68,2.166 1.181,1.445 1.771,3.49 1.771,6.137"
     id="path80" />
  <path
     fill="#64666b"
     d="m 83.367951,109.67452 c 0,1.459 -0.365,2.617 -1.094,3.472 -0.73,0.854 -1.873,1.283 -3.428,1.283 -0.813,0 -1.513,-0.113 -2.1,-0.341 -0.585,-0.228 -1.067,-0.544 -1.443,-0.952 a 3.672,3.672 0 0 1 -0.826,-1.48 6.66,6.66 0 0 1 -0.26,-1.91 v -7.484 h 1.4 v 7.315 c 0,1.246 0.262,2.17 0.79,2.768 0.525,0.6 1.351,0.898 2.475,0.898 1.077,0 1.875,-0.317 2.396,-0.952 0.52,-0.635 0.78,-1.455 0.78,-2.462 v -7.567 h 1.31 v 7.412 m 8.146999,4.538 v -5.885 c 0,-0.538 -0.11,-0.965 -0.331,-1.283 -0.222,-0.316 -0.62,-0.476 -1.194,-0.476 -0.49,0 -0.951,0.16 -1.382,0.476 a 5.3,5.3 0 0 0 -1.111999,1.103 v 6.065 h -1.31 v -8.613 h 1.31 v 1.238 c 0.382,-0.49 0.809999,-0.855 1.282999,-1.094 a 3.31,3.31 0 0 1 1.516,-0.36 c 0.455,0 0.84,0.073 1.158,0.216 0.316,0.144 0.576,0.336 0.78,0.576 0.204,0.238 0.353,0.523 0.449,0.851 0.095,0.328 0.143,0.68 0.143,1.05 v 6.136 h -1.31 m 4.289,0 v -8.613 h 1.328 v 8.613 z m 0.664,-12.165 c 0.275,0 0.505,0.093 0.69,0.278 0.185,0.185 0.279,0.415 0.279,0.692 0,0.273 -0.093,0.504 -0.278,0.69 -0.185,0.186 -0.416,0.278 -0.691,0.278 -0.275,0 -0.506,-0.092 -0.691,-0.278 -0.185,-0.186 -0.278,-0.417 -0.278,-0.69 0,-0.277 0.092,-0.506 0.278,-0.692 0.186,-0.186 0.415,-0.278 0.69,-0.278 m 6.461,10.444 2.404,-6.892 h 1.346 l -3.176,8.613 h -1.22 l -3.284,-8.613 h 1.435 l 2.459,6.892 h 0.036 m 10.713,-3.662 a 3.806,3.806 0 0 0 -0.135,-0.879 2.2,2.2 0 0 0 -0.358,-0.734 1.694,1.694 0 0 0 -0.638,-0.514 c -0.263,-0.124 -0.58,-0.187 -0.95,-0.187 -0.695,0 -1.233,0.215 -1.616,0.646 -0.383,0.43 -0.634,0.987 -0.753,1.668 z m -4.522,1.041 c 0.012,0.455 0.069,0.888 0.17,1.3 0.102,0.414 0.26,0.78 0.476,1.097 0.215,0.317 0.493,0.567 0.834,0.752 0.341,0.187 0.751,0.279 1.23,0.279 0.298,0 0.574,-0.03 0.825,-0.089 0.251,-0.062 0.476,-0.13 0.673,-0.208 0.197,-0.078 0.37,-0.16 0.52,-0.251 0.15,-0.089 0.273,-0.163 0.368,-0.225 l 0.539,1.023 a 8.079,8.079 0 0 1 -0.423,0.262 3.892,3.892 0 0 1 -0.627,0.287 6.092,6.092 0 0 1 -0.844,0.232 5.22,5.22 0 0 1 -1.067,0.1 c -0.682,0 -1.278,-0.12 -1.786,-0.36 a 3.614,3.614 0 0 1 -1.274,-0.977 4.12,4.12 0 0 1 -0.762,-1.454 c -0.168,-0.555 -0.252,-1.15 -0.252,-1.785 0,-0.635 0.096,-1.224 0.287,-1.768 a 4.436,4.436 0 0 1 0.799,-1.418 3.587,3.587 0 0 1 2.79,-1.283 c 0.574,0 1.086,0.107 1.535,0.322 0.447,0.217 0.816,0.522 1.102,0.916 0.288,0.396 0.494,0.867 0.62,1.418 0.125,0.55 0.158,1.16 0.1,1.83 h -5.833 m 12.327,-3.051 a 2.109,2.109 0 0 0 -0.241,-0.09 1.85,1.85 0 0 0 -0.513,-0.053 1.6,1.6 0 0 0 -0.861,0.234 2.858,2.858 0 0 0 -0.645,0.537 3.433,3.433 0 0 0 -0.611,0.987 v 5.778 h -1.309 v -8.613 h 1.309 v 1.347 a 4.73,4.73 0 0 1 0.332,-0.485 3.34,3.34 0 0 1 0.494,-0.51 c 0.191,-0.163 0.41,-0.298 0.655,-0.405 a 2.01,2.01 0 0 1 0.816,-0.162 c 0.263,0 0.464,0.025 0.601,0.072 0.138,0.048 0.237,0.084 0.296,0.107 l -0.323,1.256 m 7.071,5.079 c 0,0.79 -0.278,1.412 -0.826,1.867 -0.548,0.455 -1.3,0.681 -2.244,0.681 -0.622,0 -1.163,-0.09 -1.624,-0.27 -0.46,-0.179 -0.828,-0.364 -1.103,-0.554 l 0.574,-1.006 c 0.167,0.12 0.434,0.266 0.799,0.44 0.364,0.173 0.81,0.26 1.337,0.26 0.538,0 0.965,-0.107 1.282,-0.323 0.318,-0.217 0.477,-0.521 0.477,-0.916 0,-0.395 -0.159,-0.7 -0.477,-0.924 -0.317,-0.22 -0.792,-0.468 -1.426,-0.744 a 11.387,11.387 0 0 1 -0.932,-0.449 3.54,3.54 0 0 1 -0.754,-0.537 2.171,2.171 0 0 1 -0.503,-0.71 c -0.12,-0.27 -0.18,-0.589 -0.18,-0.96 0,-0.67 0.24,-1.232 0.718,-1.688 0.479,-0.454 1.15,-0.681 2.01,-0.681 0.358,0 0.679,0.033 0.96,0.1 0.28,0.066 0.53,0.142 0.745,0.232 a 3.335,3.335 0 0 1 0.844,0.494 l -0.646,0.951 a 4.47,4.47 0 0 0 -0.709,-0.413 c -0.318,-0.155 -0.721,-0.233 -1.21,-0.233 -0.458,0 -0.81,0.105 -1.06,0.314 -0.25,0.209 -0.378,0.498 -0.378,0.87 0,0.407 0.156,0.715 0.468,0.925 0.309,0.209 0.706,0.415 1.184,0.617 0.348,0.145 0.68,0.297 1.004,0.46 0.324,0.161 0.607,0.343 0.853,0.546 0.244,0.203 0.442,0.44 0.591,0.709 0.149,0.269 0.226,0.583 0.226,0.942 m 2.368,2.314 v -8.613 h 1.327 v 8.613 z m 0.663,-12.165 c 0.277,0 0.506,0.093 0.691,0.278 0.185,0.185 0.278,0.415 0.278,0.692 0,0.273 -0.092,0.504 -0.278,0.69 -0.186,0.186 -0.414,0.278 -0.691,0.278 a 0.938,0.938 0 0 1 -0.69,-0.278 0.943,0.943 0 0 1 -0.279,-0.69 0.94,0.94 0 0 1 0.278,-0.692 0.938,0.938 0 0 1 0.69,-0.278 m 8.077,11.86 c -0.133,0.086 -0.35,0.194 -0.656,0.324 -0.306,0.13 -0.69,0.198 -1.157,0.198 -0.718,0 -1.255,-0.201 -1.614,-0.602 -0.359,-0.401 -0.54,-0.96 -0.54,-1.677 v -5.51 h -1.418 v -1.041 h 1.418 v -2.458 h 1.31 v 2.458 h 2.172 v 1.04 h -2.171 v 5.385 c 0,0.43 0.07,0.75 0.216,0.96 0.143,0.208 0.406,0.314 0.788,0.314 0.275,0 0.521,-0.047 0.736,-0.143 0.215,-0.095 0.36,-0.173 0.43,-0.234 l 0.486,0.986 m 5.15,1.455 a 11.58,11.58 0 0 1 -0.486,1.139 c -0.178,0.365 -0.4,0.688 -0.664,0.969 -0.262,0.28 -0.579,0.502 -0.951,0.664 -0.371,0.162 -0.82,0.242 -1.344,0.242 -0.23,0 -0.402,-0.008 -0.521,-0.027 a 2.433,2.433 0 0 1 -0.305,-0.062 l 0.18,-1.097 c 0.058,0.013 0.13,0.026 0.213,0.038 0.086,0.011 0.235,0.017 0.45,0.017 0.61,0 1.063,-0.164 1.365,-0.494 0.298,-0.328 0.566,-0.814 0.806,-1.462 l 0.413,-1.13 -3.247,-8.56 h 1.47 l 2.46,6.873 h 0.035 l 2.386,-6.873 h 1.4 l -3.66,9.763 m 15.34,-5.437 c 0,-0.467 -0.055,-0.906 -0.168,-1.32 a 3.194,3.194 0 0 0 -0.521,-1.084 2.57,2.57 0 0 0 -0.853,-0.738 c -0.335,-0.178 -0.73,-0.268 -1.183,-0.268 -0.443,0 -0.826,0.09 -1.148,0.268 a 2.168,2.168 0 0 0 -0.781,0.728 3.361,3.361 0 0 0 -0.44,1.066 c -0.097,0.408 -0.144,0.846 -0.144,1.312 0,0.466 0.05,0.905 0.152,1.318 0.102,0.413 0.26,0.775 0.475,1.087 0.217,0.31 0.49,0.557 0.818,0.734 0.329,0.181 0.715,0.27 1.158,0.27 0.454,0 0.846,-0.089 1.174,-0.27 0.33,-0.177 0.602,-0.42 0.819,-0.726 a 3.27,3.27 0 0 0 0.482,-1.069 5.11,5.11 0 0 0 0.16,-1.308 z m 1.403,-0.036 c 0,0.503 -0.076,1.022 -0.225,1.56 a 4.419,4.419 0 0 1 -0.71,1.462 3.86,3.86 0 0 1 -1.255,1.086 c -0.516,0.29 -1.139,0.432 -1.867,0.432 -0.73,0 -1.347,-0.14 -1.848,-0.422 a 3.768,3.768 0 0 1 -1.23,-1.076 4.421,4.421 0 0 1 -0.69,-1.455 c -0.144,-0.532 -0.215,-1.05 -0.215,-1.551 0,-0.501 0.069,-1.024 0.205,-1.563 a 4.336,4.336 0 0 1 0.674,-1.461 3.78,3.78 0 0 1 1.211,-1.085 c 0.494,-0.288 1.109,-0.432 1.838,-0.432 0.729,0 1.355,0.143 1.875,0.423 0.522,0.28 0.945,0.64 1.274,1.077 0.33,0.436 0.572,0.92 0.728,1.452 0.156,0.532 0.235,1.05 0.235,1.553 m 6.746,-7.448 a 9.519,9.519 0 0 0 -0.377,-0.126 2.643,2.643 0 0 0 -0.754,-0.088 c -0.573,0 -1.018,0.184 -1.328,0.555 -0.31,0.371 -0.467,0.915 -0.467,1.633 v 1.184 h 2.19 v 1.04 h -2.19 v 7.573 h -1.31 v -7.572 h -1.434 v -1.041 h 1.434 v -1.274 c 0,-0.992 0.273,-1.783 0.818,-2.369 0.544,-0.586 1.317,-0.879 2.324,-0.879 0.417,0 0.744,0.03 0.976,0.091 0.235,0.059 0.387,0.107 0.459,0.144 l -0.341,1.128 m 14.087,10.786 c -0.313,0.287 -0.782,0.56 -1.41,0.816 -0.628,0.258 -1.36,0.387 -2.199,0.387 -0.932,0 -1.76,-0.175 -2.485,-0.522 a 5.54,5.54 0 0 1 -1.83,-1.382 5.905,5.905 0 0 1 -1.131,-1.99 7.154,7.154 0 0 1 -0.386,-2.333 c 0,-0.813 0.132,-1.592 0.395,-2.334 a 5.856,5.856 0 0 1 1.15,-1.956 5.67,5.67 0 0 1 1.838,-1.354 c 0.724,-0.34 1.545,-0.511 2.468,-0.511 0.764,0 1.405,0.08 1.92,0.247 0.514,0.163 0.993,0.385 1.434,0.664 l -0.7,1.063 c -0.347,-0.24 -0.737,-0.431 -1.175,-0.575 -0.438,-0.144 -0.941,-0.215 -1.516,-0.215 -0.717,0 -1.35,0.137 -1.894,0.412 a 4.012,4.012 0 0 0 -1.355,1.092 c -0.358,0.453 -0.63,0.98 -0.816,1.576 a 6.282,6.282 0 0 0 -0.277,1.864 c 0,0.656 0.09,1.289 0.268,1.899 0.18,0.608 0.453,1.149 0.819,1.621 a 4.01,4.01 0 0 0 1.37,1.128 c 0.551,0.281 1.196,0.42 1.94,0.42 0.647,0 1.207,-0.096 1.687,-0.285 a 4.359,4.359 0 0 0 1.237,-0.737 l 0.648,1.005 m 6.406,-3.104 h -0.378 c -0.467,0 -0.894,0.033 -1.283,0.099 -0.389,0.066 -0.725,0.176 -1.005,0.332 a 1.809,1.809 0 0 0 -0.665,0.61 c -0.16,0.252 -0.241,0.555 -0.241,0.914 0,0.229 0.04,0.42 0.126,0.575 0.084,0.156 0.187,0.28 0.314,0.376 0.125,0.096 0.264,0.164 0.412,0.207 0.149,0.042 0.29,0.063 0.422,0.063 0.49,0 0.927,-0.113 1.309,-0.34 a 3.38,3.38 0 0 0 0.989,-0.898 z m 0.196,4.09 a 6.065,6.065 0 0 1 -0.072,-0.51 65.67,65.67 0 0 1 -0.054,-0.529 3.454,3.454 0 0 1 -1.104,0.896 c -0.449,0.24 -0.942,0.36 -1.48,0.36 -0.718,0 -1.308,-0.21 -1.767,-0.629 -0.46,-0.418 -0.69,-0.98 -0.69,-1.688 0,-0.573 0.138,-1.048 0.421,-1.425 0.28,-0.377 0.644,-0.678 1.095,-0.905 0.448,-0.228 0.945,-0.39 1.489,-0.486 a 9.158,9.158 0 0 1 1.588,-0.142 h 0.378 v -0.803 c 0,-0.643 -0.14,-1.099 -0.415,-1.372 -0.274,-0.274 -0.711,-0.41 -1.309,-0.41 a 3.07,3.07 0 0 0 -1.13,0.208 c -0.36,0.136 -0.731,0.377 -1.114,0.724 l -0.7,-0.914 c 0.85,-0.803 1.86,-1.203 3.034,-1.203 0.945,0 1.672,0.23 2.18,0.691 0.508,0.461 0.762,1.182 0.762,2.164 v 4.018 c 0,0.43 0.018,0.813 0.053,1.149 0.038,0.336 0.085,0.604 0.146,0.806 h -1.31 m 4.018,0 h 1.31 v -12.92 h -1.31 z m 4.396,0 v -8.613 h 1.33 v 8.613 z m 0.664,-12.165 c 0.275,0 0.506,0.093 0.69,0.278 a 0.93,0.93 0 0 1 0.28,0.692 0.933,0.933 0 0 1 -0.28,0.69 c -0.184,0.185 -0.415,0.278 -0.69,0.278 -0.275,0 -0.505,-0.092 -0.69,-0.278 -0.185,-0.186 -0.278,-0.417 -0.278,-0.69 0,-0.277 0.092,-0.506 0.278,-0.692 0.186,-0.186 0.416,-0.278 0.69,-0.278 m 8.274,0.394 a 10.481,10.481 0 0 0 -0.378,-0.126 2.643,2.643 0 0 0 -0.754,-0.088 c -0.574,0 -1.018,0.184 -1.326,0.555 -0.313,0.371 -0.467,0.915 -0.467,1.633 v 1.184 h 2.189 v 1.04 h -2.189 v 7.573 h -1.311 v -7.572 h -1.437 v -1.041 h 1.437 v -1.274 c 0,-0.992 0.274,-1.783 0.817,-2.369 0.544,-0.586 1.318,-0.879 2.324,-0.879 0.418,0 0.744,0.03 0.977,0.091 0.234,0.059 0.385,0.107 0.458,0.144 l -0.34,1.128 m 6.926,7.485 a 4.9,4.9 0 0 0 -0.171,-1.32 3.209,3.209 0 0 0 -0.52,-1.084 2.583,2.583 0 0 0 -0.853,-0.738 c -0.333,-0.178 -0.73,-0.268 -1.184,-0.268 -0.443,0 -0.824,0.09 -1.149,0.268 a 2.162,2.162 0 0 0 -0.779,0.728 3.433,3.433 0 0 0 -0.441,1.066 c -0.097,0.408 -0.143,0.846 -0.143,1.312 0,0.466 0.05,0.905 0.15,1.318 0.104,0.413 0.262,0.775 0.477,1.087 0.215,0.31 0.49,0.557 0.816,0.734 0.33,0.181 0.715,0.27 1.159,0.27 0.455,0 0.845,-0.089 1.175,-0.27 0.329,-0.177 0.6,-0.42 0.817,-0.726 0.216,-0.305 0.377,-0.66 0.484,-1.069 0.108,-0.406 0.162,-0.841 0.162,-1.308 z m 1.399,-0.036 c 0,0.503 -0.074,1.022 -0.225,1.56 a 4.415,4.415 0 0 1 -0.708,1.462 c -0.323,0.438 -0.743,0.8 -1.255,1.086 -0.515,0.29 -1.137,0.432 -1.867,0.432 -0.73,0 -1.347,-0.14 -1.85,-0.422 a 3.722,3.722 0 0 1 -1.226,-1.076 4.364,4.364 0 0 1 -0.691,-1.455 5.9,5.9 0 0 1 -0.217,-1.551 c 0,-0.502 0.07,-1.024 0.207,-1.563 0.136,-0.537 0.36,-1.025 0.673,-1.461 0.31,-0.437 0.714,-0.798 1.212,-1.085 0.494,-0.288 1.108,-0.432 1.838,-0.432 0.73,0 1.355,0.143 1.874,0.423 0.522,0.28 0.945,0.64 1.275,1.077 0.329,0.436 0.571,0.92 0.727,1.452 0.155,0.532 0.233,1.05 0.233,1.553 m 6.369,-3.07 a 1.943,1.943 0 0 0 -0.242,-0.09 1.823,1.823 0 0 0 -0.51,-0.053 1.6,1.6 0 0 0 -0.862,0.234 2.892,2.892 0 0 0 -0.646,0.537 c -0.18,0.205 -0.32,0.402 -0.42,0.593 a 2.883,2.883 0 0 0 -0.19,0.395 v 5.777 h -1.31 v -8.613 h 1.31 v 1.347 c 0.085,-0.143 0.194,-0.306 0.332,-0.485 0.138,-0.18 0.302,-0.349 0.493,-0.51 0.191,-0.161 0.41,-0.298 0.656,-0.405 0.243,-0.108 0.518,-0.162 0.815,-0.162 0.263,0 0.465,0.025 0.602,0.072 0.138,0.048 0.236,0.084 0.296,0.107 l -0.324,1.256 m 7.341,7.393 v -5.885 c 0,-0.538 -0.111,-0.965 -0.331,-1.283 -0.223,-0.316 -0.62,-0.476 -1.194,-0.476 -0.492,0 -0.953,0.16 -1.382,0.476 a 5.345,5.345 0 0 0 -1.114,1.103 v 6.065 h -1.308 v -8.613 h 1.308 v 1.238 c 0.383,-0.49 0.81,-0.855 1.284,-1.094 0.472,-0.239 0.976,-0.36 1.517,-0.36 0.453,0 0.84,0.073 1.157,0.216 0.318,0.144 0.576,0.336 0.782,0.576 0.202,0.238 0.35,0.523 0.447,0.851 0.095,0.328 0.143,0.68 0.143,1.05 v 6.136 h -1.31 m 4.289,0 v -8.613 h 1.328 v 8.613 z m 0.663,-12.165 c 0.276,0 0.507,0.093 0.691,0.278 a 0.933,0.933 0 0 1 0.279,0.692 0.935,0.935 0 0 1 -0.279,0.69 0.936,0.936 0 0 1 -0.691,0.278 c -0.274,0 -0.505,-0.092 -0.69,-0.278 -0.185,-0.186 -0.279,-0.417 -0.279,-0.69 0,-0.277 0.093,-0.506 0.279,-0.692 0.186,-0.186 0.416,-0.278 0.69,-0.278 m 8.005,8.075 h -0.377 c -0.467,0 -0.895,0.033 -1.283,0.099 a 3.11,3.11 0 0 0 -1.005,0.332 1.796,1.796 0 0 0 -0.663,0.61 c -0.163,0.252 -0.244,0.555 -0.244,0.914 0,0.229 0.042,0.42 0.125,0.575 0.084,0.156 0.188,0.28 0.316,0.376 0.123,0.096 0.262,0.164 0.412,0.207 0.148,0.042 0.289,0.063 0.422,0.063 0.49,0 0.926,-0.113 1.31,-0.34 a 3.41,3.41 0 0 0 0.987,-0.898 z m 0.196,4.09 a 5.742,5.742 0 0 1 -0.071,-0.51 25.104,25.104 0 0 1 -0.054,-0.529 3.51,3.51 0 0 1 -1.102,0.896 c -0.45,0.24 -0.943,0.36 -1.483,0.36 -0.716,0 -1.306,-0.21 -1.765,-0.629 -0.461,-0.418 -0.692,-0.98 -0.692,-1.688 0,-0.573 0.14,-1.048 0.421,-1.425 0.281,-0.377 0.648,-0.678 1.095,-0.905 0.447,-0.227 0.945,-0.39 1.488,-0.486 a 9.172,9.172 0 0 1 1.59,-0.142 h 0.377 v -0.803 c 0,-0.643 -0.139,-1.099 -0.414,-1.372 -0.274,-0.274 -0.711,-0.41 -1.309,-0.41 -0.396,0 -0.771,0.068 -1.13,0.208 -0.36,0.136 -0.729,0.377 -1.114,0.724 l -0.7,-0.914 c 0.85,-0.803 1.86,-1.203 3.033,-1.203 0.946,0 1.671,0.23 2.18,0.691 0.509,0.461 0.765,1.182 0.765,2.164 v 4.018 c 0,0.43 0.015,0.813 0.052,1.149 0.037,0.336 0.083,0.604 0.145,0.806 h -1.312"
     id="path82" />
  <g
     id="g175"
     transform="matrix(1.3383568,0,0,1.3383568,-92.264917,-38.640446)">
    <path
       fill="#6d6e71"
       d="m 281.93379,107.00407 c 0,-0.60249 0.51248,-0.99422 1.41637,-0.99422 1.02496,0 2.11013,0.34641 2.9237,1.09976 l 1.19039,-1.59734 c -0.99422,-0.91941 -2.32057,-1.40178 -3.91791,-1.40178 -2.3659,0 -3.813,1.38688 -3.813,3.05934 0,3.78289 5.78717,2.56207 5.78717,4.31027 0,0.5879 -0.5578,1.11528 -1.7482,1.11528 -1.38626,0 -2.48664,-0.63292 -3.19467,-1.37168 l -1.1755,1.67308 c 0.94921,0.94953 2.33579,1.59982 4.27984,1.59982 2.69772,0 4.02408,-1.38875 4.02408,-3.22727 0,-3.75278 -5.77227,-2.68282 -5.77227,-4.26526 z m 15.19396,-2.74272 h -4.702 v 10.05242 h 2.13992 v -3.58702 h 2.56208 c 2.17003,0 3.37564,-1.47721 3.37564,-3.22541 3.1e-4,-1.76309 -1.1904,-3.23999 -3.37564,-3.23999 z m -0.30172,4.58156 h -2.26067 v -2.69741 h 2.26067 c 0.84399,0 1.49212,0.51247 1.49212,1.35615 3.1e-4,0.82878 -0.64782,1.34126 -1.49212,1.34126 z m 25.15792,-2.84858 c 1.02465,0 1.92885,0.64843 2.35069,1.462 l 1.83852,-0.9042 c -0.70803,-1.26583 -1.98907,-2.45654 -4.18921,-2.45654 -3.02923,0 -5.36502,2.09523 -5.36502,5.19926 0,3.08976 2.33579,5.20206 5.36502,5.20206 2.20014,0 3.48118,-1.22299 4.18921,-2.47392 l -1.83852,-0.8893 c -0.42184,0.81388 -1.32604,1.462 -2.35069,1.462 -1.83883,0 -3.16456,-1.40179 -3.16456,-3.30084 0,-1.89874 1.32573,-3.30052 3.16456,-3.30052 z m -15.14801,-1.73298 -3.87571,10.05242 h 2.4286 l 0.63323,-1.70287 h 4.31026 l 0.63292,1.70287 h 2.42611 l -3.87353,-10.05242 z m -0.2266,6.4654 1.56754,-4.32548 1.56754,4.32548 z m 31.24649,-4.58156 v -1.88384 h -7.11321 v 10.05242 h 7.11321 v -1.88384 h -4.97329 v -2.29078 h 4.86806 v -1.88384 h -4.86806 v -2.10981 h 4.97329 z"
       id="path150"
       style="stroke-width:0.310404" />
    <path
       fill="#92c642"
       d="m 275.17413,109.27995 c 0,-3.01402 -2.18525,-5.0186 -5.33491,-5.0186 h -3.96355 v 10.05242 h 3.97845 c 3.13476,0 5.32001,-1.99 5.32001,-5.03382 z m -5.33491,3.14967 h -1.82363 v -6.28443 h 1.83884 c 2.04959,0 3.13445,1.37136 3.13445,3.13476 0,1.71809 -1.1606,3.14967 -3.14966,3.14967 z"
       id="path152"
       style="stroke-width:0.310404" />
  </g>
  <path
     fill="#92c642"
     d="m 313.35247,80.251882 0.0341,-0.0018 0.036,-0.0029 0.0329,-0.0038 0.0345,-0.0029 0.0341,-0.0067 0.0338,-0.0056 0.0332,-0.0067 0.0329,-0.0085 0.0329,-0.0067 0.0329,-0.0097 0.032,-0.01 0.0298,-0.01026 0.0323,-0.01174 0.0314,-0.01232 0.0307,-0.01232 v -2.93e-4 l 0.0298,-0.0132 v 0 l 0.0295,-0.01291 0.0298,-0.01437 0.0282,-0.01642 v -2.94e-4 l 0.0292,-0.01467 v -5.86e-4 l 0.0279,-0.01642 v -2.94e-4 l 0.0286,-0.0176 0.0258,-0.01642 v -2.93e-4 l 0.0264,-0.01848 0.0273,-0.01907 v -5.86e-4 l 0.027,-0.01848 v -2.93e-4 c 0.25359,-0.200353 0.43239,-0.482841 0.48454,-0.80317 l 0.004,-0.03051 v -0.0026 l 0.004,-0.02963 v -0.0032 l 0.003,-0.02875 v -0.0035 l 0.003,-0.02963 v -0.005 l 0.002,-0.02787 v -0.0047 l 6.2e-4,-0.0308 v -4.828405 l -6.2e-4,-0.0308 v -0.0047 l -0.002,-0.02787 v -0.0038 l -0.003,-0.02963 v -0.0035 l -0.003,-0.02875 v -0.0032 l -0.004,-0.02933 v -0.0029 l -0.004,-0.03051 c -0.0518,-0.320329 -0.23095,-0.603404 -0.48454,-0.80317 v -2.93e-4 l -0.027,-0.01848 v -5.87e-4 l -0.0273,-0.01907 -0.0264,-0.01848 v -2.94e-4 l -0.0258,-0.01642 -0.0286,-0.0179 v 0 l -0.0279,-0.01642 v -8.8e-4 l -0.0292,-0.01467 v -2.93e-4 l -0.0282,-0.01642 -0.0298,-0.01437 -0.0295,-0.01262 v -2.92e-4 l -0.0298,-0.0132 v -2.93e-4 l -0.0307,-0.01262 -0.0314,-0.01232 -0.0323,-0.01174 -0.0298,-0.01026 -0.032,-0.0091 -0.0329,-0.01056 -0.0329,-0.0067 -0.0329,-0.0082 -0.0332,-0.007 -0.0338,-0.0056 -0.0341,-0.0067 -0.0345,-0.0026 -0.0329,-0.0041 -0.036,-0.0029 -0.0341,-0.0018 -0.0354,-0.0015 h -2.44908 c -3.01557,0 -4.92239,-2.299213 -4.92239,-5.030811 v -2.706372 c 0,-1.118218 -0.96287,-2.028458 -2.14613,-2.028458 h -4.92455 c -1.18388,0 -2.148,0.91112 -2.148,2.028458 v 4.893528 c 0,1.116459 0.9635,2.026699 2.148,2.026699 h 2.61173 c 2.8461,0 5.24769,1.745383 5.32219,4.518343 v 0.01174 c -0.0745,2.772959 -2.47609,4.518049 -5.32219,4.518049 h -2.61173 c -1.1845,0 -2.148,0.91024 -2.148,2.026699 v 4.893527 c 0,1.11734 0.96412,2.028459 2.148,2.028459 h 4.92455 c 1.18326,0 2.14613,-0.910533 2.14613,-2.028459 v -2.705491 c 0,-2.731598 1.90713,-5.030518 4.92239,-5.030518 h 2.44908 z m 10.56801,-14.260224 c -1.90619,-1.801705 -4.53873,-2.920511 -7.43604,-2.920511 h -4.6635 v 5.111188 h 4.6635 c 1.4052,0 2.68438,0.545028 3.61311,1.422414 0.9281,0.877091 1.50483,2.086247 1.50483,3.414205 v 7.052522 c 0,1.331186 -0.57487,2.541807 -1.49987,3.418899 l -0.005,-0.0047 c -0.92842,0.877386 -2.20791,1.422414 -3.61311,1.422414 h -4.6635 v 5.111188 h 4.6635 c 2.897,0 5.52985,-1.118806 7.43604,-2.920511 v -0.0097 c 1.9065,-1.801999 3.09007,-4.286897 3.09007,-7.017616 v -7.052523 c 0,-2.738052 -1.18357,-5.225883 -3.09007,-7.027296 z"
     id="path154"
     style="stroke-width:0.301752" />
  <text
     xml:space="preserve"
     style="font-style:normal;font-weight:normal;font-size:46.19599999999999795px;line-height:1.25;font-family:sans-serif;fill:#e6e6e6;fill-opacity:1;stroke:none;stroke-width:1.15489;"
     x="286.47882"
     y="90.181953"
     id="text126"
     transform="scale(0.86587764,1.1548976)"><tspan
       sodipodi:role="line"
       id="tspan124"
       x="286.47882"
       y="90.181953"
       style="fill:#e6e6e6;stroke-width:1.15489;">}</tspan></text>
</svg>
